<?xml version="1.0" encoding="UTF-8" standalone="no"?><!DOCTYPE svg PUBLIC "-//W3C//DTD SVG 1.1//EN" "http://www.w3.org/Graphics/SVG/1.1/DTD/svg11.dtd"><svg width="100%" height="100%" viewBox="0 0 151 150" version="1.1" xmlns="http://www.w3.org/2000/svg" xmlns:xlink="http://www.w3.org/1999/xlink" xml:space="preserve" xmlns:serif="http://www.serif.com/" style="fill-rule:evenodd;clip-rule:evenodd;stroke-linejoin:round;stroke-miterlimit:1.41421;"><g><rect x="0.53" y="0" width="149.928" height="149.928" style="fill:#4f5d56;"/><g><path d="M77.715,49.686c2.082,2.251 3.674,30.81 -1.425,34.532c-1.663,1.215 -6.454,-0.013 -8.448,-0.064c-2.761,-0.154 -5.045,-1.436 -6.902,-3.723c-2.487,-3.077 -4.601,-5.377 -6.211,-6.632c2.862,0.687 5.228,0.955 7.015,0.733c2.741,-0.064 5.215,0.372 7.228,1.679c-4.663,-4.467 -7.101,-8.86 -7.919,-13.2c-0.642,-3.545 -1.149,-6.144 -1.616,-8.462c0.962,1.682 2.236,3.163 3.925,4.377c2.423,1.31 4.445,2.671 6.061,4.085c2.017,1.597 3.391,4.055 4.237,7.219c-0.552,-3.774 -0.487,-7.541 0,-11.304c0.48,-3.7 1.823,-6.787 4.055,-9.24Z" style="fill:#fff;"/><path d="M77.741,100.207c0.011,0.012 0.024,0.023 0.036,0.035l0,-0.07c1.209,-1.171 1.916,-2.724 2.179,-4.618c1.474,0.038 2.587,-0.788 3.309,-2.548c-1.949,-0.889 -3.205,-2.349 -3.364,-4.711l7.581,0l0,-4.077l-3.627,0c0.096,-2.323 0.82,-4.144 2.655,-5.08c1.275,-0.386 2.455,-0.228 3.478,0.834c0.877,1.363 0.959,2.736 0.134,4.118c2.236,-0.395 4.258,-1.281 5.548,-3.843c0.972,-2.421 0.787,-4.845 -0.901,-7.274c-2.308,-2.672 -4.924,-3.387 -7.934,-1.61c-2.096,1.358 -3.528,3.256 -4.303,5.686c-0.83,2.352 -1.189,4.746 -1.226,7.169l-2.115,0c-0.036,-2.518 0.224,-4.985 0.833,-7.391c0.642,-2.191 1.372,-4.337 2.167,-6.449c0.842,-2.119 1.554,-4.127 1.769,-5.713c0.146,-2.004 0.007,-3.888 -0.565,-5.59c-0.596,-1.846 -1.444,-3.663 -2.53,-5.453c-0.928,-1.336 -1.948,-2.625 -3.088,-3.858l0,-0.078c-0.012,0.013 -0.025,0.026 -0.036,0.039c-0.013,-0.013 -0.025,-0.026 -0.037,-0.039l0,0.078c-1.14,1.233 -1.379,31.936 -1.414,34.454l-8.291,0l0,4.077l7.581,0c-0.159,2.362 -1.415,3.822 -3.364,4.711c0.722,1.76 1.835,2.586 3.309,2.548c0.262,1.894 0.97,3.447 2.179,4.618l0,0.07c0.012,-0.012 0.024,-0.023 0.037,-0.035Z" style="fill:#fff;"/></g></g></svg>