<?xml version="1.0" encoding="UTF-8" standalone="no"?><!DOCTYPE svg PUBLIC "-//W3C//DTD SVG 1.1//EN" "http://www.w3.org/Graphics/SVG/1.1/DTD/svg11.dtd"><svg width="100%" height="100%" viewBox="0 0 126 126" version="1.1" xmlns="http://www.w3.org/2000/svg" xmlns:xlink="http://www.w3.org/1999/xlink" xml:space="preserve" xmlns:serif="http://www.serif.com/" style="fill-rule:evenodd;clip-rule:evenodd;stroke-linejoin:round;stroke-miterlimit:1.41421;"><g><g><path d="M62.558,36.162c2.083,2.252 3.675,30.81 -1.424,34.533c-1.663,1.214 -6.454,-0.014 -8.448,-0.064c-2.761,-0.155 -5.045,-1.436 -6.902,-3.724c-2.487,-3.076 -4.601,-5.376 -6.211,-6.632c2.862,0.687 5.228,0.956 7.015,0.734c2.74,-0.064 5.215,0.372 7.228,1.678c-4.663,-4.466 -7.101,-8.859 -7.919,-13.2c-0.642,-3.544 -1.149,-6.143 -1.616,-8.461c0.962,1.681 2.236,3.162 3.925,4.377c2.423,1.309 4.445,2.67 6.061,4.084c2.017,1.598 3.391,4.056 4.237,7.219c-0.552,-3.774 -0.487,-7.541 0,-11.303c0.48,-3.7 1.823,-6.787 4.054,-9.241Z" style="fill:#4f5d56;"/><path d="M62.584,86.683c0.012,0.012 0.025,0.023 0.036,0.035l0,-0.069c1.21,-1.171 1.917,-2.725 2.18,-4.619c1.474,0.039 2.586,-0.787 3.309,-2.547c-1.949,-0.889 -3.205,-2.349 -3.364,-4.712l7.581,0l0,-4.076l-3.628,0c0.097,-2.323 0.821,-4.145 2.656,-5.08c1.275,-0.387 2.455,-0.229 3.478,0.833c0.877,1.364 0.959,2.736 0.134,4.119c2.236,-0.396 4.258,-1.281 5.548,-3.844c0.971,-2.42 0.786,-4.845 -0.901,-7.274c-2.308,-2.671 -4.924,-3.387 -7.934,-1.61c-2.096,1.358 -3.528,3.256 -4.303,5.687c-0.83,2.351 -1.189,4.746 -1.226,7.169l-2.115,0c-0.036,-2.519 0.224,-4.986 0.833,-7.391c0.642,-2.192 1.372,-4.337 2.167,-6.45c0.842,-2.118 1.554,-4.127 1.769,-5.712c0.146,-2.005 0.007,-3.889 -0.565,-5.59c-0.597,-1.846 -1.444,-3.664 -2.53,-5.454c-0.928,-1.336 -1.949,-2.625 -3.089,-3.857l0,-0.079c-0.011,0.013 -0.024,0.027 -0.036,0.04c-0.012,-0.013 -0.024,-0.027 -0.036,-0.04l0,0.079c-1.14,1.232 -1.379,31.935 -1.414,34.454l-8.291,0l0,4.076l7.581,0c-0.16,2.363 -1.415,3.823 -3.364,4.712c0.722,1.76 1.835,2.586 3.308,2.547c0.263,1.894 0.971,3.448 2.18,4.619l0,0.069c0.012,-0.012 0.024,-0.023 0.036,-0.035Z" style="fill:#4f5d56;"/></g><g transform="matrix(0.942466,0.334303,-0.334303,0.942466,-1229.79,-1784.7)"><g transform="matrix(0.0253636,0.999678,-0.999678,0.0253636,3034.07,-499.884)"><text x="1773.4px" y="1306.07px" style="font-family:'Barlow-Medium', 'Barlow';font-weight:500;font-size:17px;">c</text></g><g transform="matrix(0.168298,0.985736,-0.985736,0.168298,2771.38,-654.593)"><text x="1773.61px" y="1315.03px" style="font-family:'Barlow-Medium', 'Barlow';font-weight:500;font-size:17px;">h</text></g><g transform="matrix(0.306103,0.951998,-0.951998,0.306103,2492.33,-771.176)"><text x="1775.18px" y="1324.1px" style="font-family:'Barlow-Medium', 'Barlow';font-weight:500;font-size:17px;">a</text></g><g transform="matrix(0.443874,0.896089,-0.896089,0.443874,2182.77,-852.097)"><text x="1777.88px" y="1332.5px" style="font-family:'Barlow-Medium', 'Barlow';font-weight:500;font-size:17px;">n</text></g><g transform="matrix(0.561806,0.827269,-0.827269,0.561806,1889.81,-886.672)"><text x="1781.88px" y="1340.55px" style="font-family:'Barlow-Medium', 'Barlow';font-weight:500;font-size:17px;">v</text></g><g transform="matrix(0.659847,0.7514,-0.7514,0.659847,1620.17,-884.112)"><text x="1786.59px" y="1347.43px" style="font-family:'Barlow-Medium', 'Barlow';font-weight:500;font-size:17px;">r</text></g><g transform="matrix(0.741236,0.671244,-0.671244,0.741236,1370.97,-852.032)"><text x="1790.59px" y="1352.16px" style="font-family:'Barlow-Medium', 'Barlow';font-weight:500;font-size:17px;">e</text></g><g transform="matrix(0.858977,0.512014,-0.512014,0.858977,950.368,-729.852)"><text x="1800.13px" y="1360.33px" style="font-family:'Barlow-Medium', 'Barlow';font-weight:500;font-size:17px;">d</text></g><g transform="matrix(0.925904,0.377759,-0.377759,0.925904,649.646,-581.892)"><text x="1808.13px" y="1365.08px" style="font-family:'Barlow-Medium', 'Barlow';font-weight:500;font-size:17px;">u</text></g><g transform="matrix(0.982971,0.183758,-0.183758,0.982971,282.646,-311.103)"><text x="1819.91px" y="1369.49px" style="font-family:'Barlow-Medium', 'Barlow';font-weight:500;font-size:17px;">q</text></g><g transform="matrix(0.999419,0.0340763,-0.0340763,0.999419,47.7872,-61.5343)"><text x="1829.15px" y="1371.18px" style="font-family:'Barlow-Medium', 'Barlow';font-weight:500;font-size:17px;">u</text></g><g transform="matrix(0.993691,-0.112156,0.112156,0.993691,-142.223,214.829)"><text x="1838.29px" y="1371.5px" style="font-family:'Barlow-Medium', 'Barlow';font-weight:500;font-size:17px;">é</text></g><g transform="matrix(0.965521,-0.260326,0.260326,0.965521,-293.077,528.183)"><text x="1847.41px" y="1370.49px" style="font-family:'Barlow-Medium', 'Barlow';font-weight:500;font-size:17px;">b</text></g><g transform="matrix(0.916981,-0.398931,0.398931,0.916981,-391.65,854.152)"><text x="1856.4px" y="1368.07px" style="font-family:'Barlow-Medium', 'Barlow';font-weight:500;font-size:17px;">e</text></g><g transform="matrix(0.848783,-0.528741,0.528741,0.848783,-439.433,1192.33)"><text x="1864.81px" y="1364.42px" style="font-family:'Barlow-Medium', 'Barlow';font-weight:500;font-size:17px;">c</text></g><g transform="matrix(0.70447,-0.709734,0.709734,0.70447,-407.037,1733.18)"><text x="1877.66px" y="1355.35px" style="font-family:'Barlow-Medium', 'Barlow';font-weight:500;font-size:17px;">-</text></g><g transform="matrix(0.551831,-0.833956,0.833956,0.551831,-276.264,2176.25)"><text x="1886.66px" y="1345.16px" style="font-family:'Barlow-Medium', 'Barlow';font-weight:500;font-size:17px;">i</text></g><g transform="matrix(0.458113,-0.888894,0.888894,0.458113,-168.895,2406.27)"><text x="1889.13px" y="1341.66px" style="font-family:'Barlow-Medium', 'Barlow';font-weight:500;font-size:17px;">n</text></g><g transform="matrix(0.345517,-0.938412,0.938412,0.345517,-12.1876,2649.37)"><text x="1893.27px" y="1333.42px" style="font-family:'Barlow-Medium', 'Barlow';font-weight:500;font-size:17px;">f</text></g><g transform="matrix(0.23427,-0.972172,0.972172,0.23427,159.989,2859.66)"><text x="1895.31px" y="1328.27px" style="font-family:'Barlow-Medium', 'Barlow';font-weight:500;font-size:17px;">o</text></g><g transform="matrix(0.101951,-0.994789,0.994789,0.101951,391.807,3072.15)"><text x="1897.45px" y="1319.07px" style="font-family:'Barlow-Medium', 'Barlow';font-weight:500;font-size:17px;">r</text></g><g transform="matrix(-0.0530678,-0.998591,0.998591,-0.0530678,688.259,3278.19)"><text x="1898.43px" y="1312.77px" style="font-family:'Barlow-Medium', 'Barlow';font-weight:500;font-size:17px;">m</text></g><g transform="matrix(-0.230473,-0.973079,0.973079,-0.230473,1070.95,3444.46)"><text x="1897.44px" y="1298.76px" style="font-family:'Barlow-Medium', 'Barlow';font-weight:500;font-size:17px;">a</text></g><g transform="matrix(-0.345517,-0.938412,0.938412,-0.345517,1339.36,3514.83)"><text x="1895.36px" y="1290.36px" style="font-family:'Barlow-Medium', 'Barlow';font-weight:500;font-size:17px;">t</text></g><g transform="matrix(-0.426053,-0.904698,0.904698,-0.426053,1537.66,3544.47)"><text x="1893.15px" y="1284.48px" style="font-family:'Barlow-Medium', 'Barlow';font-weight:500;font-size:17px;">i</text></g><g transform="matrix(-0.522977,-0.852347,0.852347,-0.522977,1789.16,3562.41)"><text x="1891.45px" y="1280.54px" style="font-family:'Barlow-Medium', 'Barlow';font-weight:500;font-size:17px;">o</text></g><g transform="matrix(-0.644022,-0.765007,0.765007,-0.644022,2127.98,3535.19)"><text x="1886.5px" y="1272.49px" style="font-family:'Barlow-Medium', 'Barlow';font-weight:500;font-size:17px;">n</text></g><g transform="matrix(-0.804762,-0.593598,0.593598,-0.804762,2636.36,3388.87)"><text x="1875.49px" y="1260.88px" style="font-family:'Barlow-Medium', 'Barlow';font-weight:500;font-size:17px;">-</text></g><g transform="matrix(-0.922094,-0.386966,0.386966,-0.922094,3098.1,3130.42)"><text x="1864.17px" y="1253.35px" style="font-family:'Barlow-Medium', 'Barlow';font-weight:500;font-size:17px;">h</text></g><g transform="matrix(-0.968883,-0.247519,0.247519,-0.968883,3344.2,2919.97)"><text x="1855.64px" y="1249.78px" style="font-family:'Barlow-Medium', 'Barlow';font-weight:500;font-size:17px;">u</text></g><g transform="matrix(-0.995223,-0.0976278,0.0976278,-0.995223,3562.91,2669.33)"><text x="1846.76px" y="1247.5px" style="font-family:'Barlow-Medium', 'Barlow';font-weight:500;font-size:17px;">b</text></g><g transform="matrix(-0.990866,0.134852,-0.134852,-0.990866,3812.84,2235.42)"><text x="1830.71px" y="1246.84px" style="font-family:'Barlow-Medium', 'Barlow';font-weight:500;font-size:17px;">-</text></g><g transform="matrix(-0.932984,0.359917,-0.359917,-0.932984,3962.57,1760.91)"><text x="1817.34px" y="1249.37px" style="font-family:'Barlow-Medium', 'Barlow';font-weight:500;font-size:17px;">s</text></g><g transform="matrix(-0.8735,0.486825,-0.486825,-0.8735,3999.9,1465.28)"><text x="1809.58px" y="1252.32px" style="font-family:'Barlow-Medium', 'Barlow';font-weight:500;font-size:17px;">e</text></g><g transform="matrix(-0.802536,0.596604,-0.596604,-0.802536,3997.27,1190.67)"><text x="1801.59px" y="1256.84px" style="font-family:'Barlow-Medium', 'Barlow';font-weight:500;font-size:17px;">r</text></g><g transform="matrix(-0.728612,0.684927,-0.684927,-0.728612,3968.46,949.144)"><text x="1796.19px" y="1260.78px" style="font-family:'Barlow-Medium', 'Barlow';font-weight:500;font-size:17px;">v</text></g><g transform="matrix(-0.656199,0.754588,-0.754588,-0.656199,3920.63,746.856)"><text x="1790.18px" y="1266.58px" style="font-family:'Barlow-Medium', 'Barlow';font-weight:500;font-size:17px;">i</text></g><g transform="matrix(-0.571691,0.820469,-0.820469,-0.571691,3850.8,529.197)"><text x="1787.27px" y="1269.71px" style="font-family:'Barlow-Medium', 'Barlow';font-weight:500;font-size:17px;">c</text></g><g transform="matrix(-0.449315,0.893373,-0.893373,-0.449315,3723.76,258.605)"><text x="1782.18px" y="1276.99px" style="font-family:'Barlow-Medium', 'Barlow';font-weight:500;font-size:17px;">e</text></g><g transform="matrix(-0.318959,0.947768,-0.947768,-0.318959,3563.28,9.91772)"><text x="1778.08px" y="1285.2px" style="font-family:'Barlow-Medium', 'Barlow';font-weight:500;font-size:17px;">s</text></g><g transform="matrix(-0.148107,0.988971,-0.988971,-0.148107,3319.64,-266.703)"><text x="1774.69px" y="1296.4px" style="font-family:'Barlow-Medium', 'Barlow';font-weight:500;font-size:17px;">-</text></g></g></g></svg>