<?xml version="1.0" encoding="UTF-8" standalone="no"?><!DOCTYPE svg PUBLIC "-//W3C//DTD SVG 1.1//EN" "http://www.w3.org/Graphics/SVG/1.1/DTD/svg11.dtd"><svg width="100%" height="100%" viewBox="0 0 125 126" version="1.1" xmlns="http://www.w3.org/2000/svg" xmlns:xlink="http://www.w3.org/1999/xlink" xml:space="preserve" xmlns:serif="http://www.serif.com/" style="fill-rule:evenodd;clip-rule:evenodd;stroke-linejoin:round;stroke-miterlimit:1.41421;"><g><g><path d="M62.384,36.162c2.083,2.252 3.675,30.81 -1.424,34.533c-1.663,1.214 -6.454,-0.014 -8.448,-0.064c-2.761,-0.155 -5.045,-1.436 -6.902,-3.724c-2.487,-3.076 -4.601,-5.376 -6.211,-6.632c2.862,0.687 5.228,0.956 7.014,0.734c2.741,-0.064 5.216,0.372 7.229,1.678c-4.663,-4.466 -7.101,-8.859 -7.919,-13.2c-0.642,-3.544 -1.149,-6.143 -1.616,-8.461c0.962,1.681 2.236,3.162 3.925,4.377c2.423,1.309 4.445,2.67 6.061,4.084c2.017,1.598 3.391,4.056 4.237,7.219c-0.552,-3.774 -0.488,-7.541 0,-11.303c0.48,-3.7 1.822,-6.787 4.054,-9.241Z" style="fill:#4f5d56;"/><path d="M62.41,86.683c0.012,0.012 0.024,0.023 0.036,0.035l0,-0.069c1.21,-1.171 1.917,-2.725 2.18,-4.619c1.474,0.039 2.586,-0.787 3.309,-2.547c-1.949,-0.889 -3.205,-2.349 -3.364,-4.712l7.58,0l0,-4.076l-3.627,0c0.097,-2.323 0.821,-4.145 2.655,-5.08c1.276,-0.387 2.456,-0.229 3.479,0.833c0.877,1.364 0.959,2.736 0.134,4.119c2.236,-0.396 4.258,-1.281 5.548,-3.844c0.971,-2.42 0.786,-4.845 -0.901,-7.274c-2.308,-2.671 -4.925,-3.387 -7.934,-1.61c-2.096,1.358 -3.528,3.256 -4.303,5.687c-0.83,2.351 -1.189,4.746 -1.227,7.169l-2.114,0c-0.036,-2.519 0.224,-4.986 0.833,-7.391c0.642,-2.192 1.372,-4.337 2.166,-6.45c0.843,-2.118 1.555,-4.127 1.769,-5.712c0.147,-2.005 0.008,-3.889 -0.564,-5.59c-0.597,-1.846 -1.444,-3.664 -2.531,-5.454c-0.927,-1.336 -1.948,-2.625 -3.088,-3.857l0,-0.079c-0.012,0.013 -0.024,0.027 -0.036,0.04c-0.012,-0.013 -0.024,-0.027 -0.036,-0.04l0,0.079c-1.14,1.232 -1.379,31.935 -1.414,34.454l-8.291,0l0,4.076l7.58,0c-0.159,2.363 -1.415,3.823 -3.363,4.712c0.722,1.76 1.834,2.586 3.308,2.547c0.263,1.894 0.971,3.448 2.18,4.619l0,0.069c0.012,-0.012 0.024,-0.023 0.036,-0.035Z" style="fill:#4f5d56;"/></g><g transform="matrix(-0.5,-0.866025,0.866025,-0.5,-153.151,2307.15)"><g transform="matrix(-0.984384,0.176036,-0.176036,-0.984384,3849.55,2152.29)"><text x="1829.31px" y="1246.89px" style="font-family:'Barlow-Medium', 'Barlow';font-weight:500;font-size:17px;">c</text></g><g transform="matrix(-0.948505,0.316761,-0.316761,-0.948505,3942.68,1855.96)"><text x="1820.48px" y="1248.45px" style="font-family:'Barlow-Medium', 'Barlow';font-weight:500;font-size:17px;">h</text></g><g transform="matrix(-0.894055,0.447957,-0.447957,-0.894055,3992.1,1558.64)"><text x="1811.74px" y="1251.4px" style="font-family:'Barlow-Medium', 'Barlow';font-weight:500;font-size:17px;">a</text></g><g transform="matrix(-0.818321,0.574761,-0.574761,-0.818321,4001.5,1245.85)"><text x="1803.85px" y="1255.35px" style="font-family:'Barlow-Medium', 'Barlow';font-weight:500;font-size:17px;">n</text></g><g transform="matrix(-0.733185,0.680029,-0.680029,-0.733185,3970.88,963.024)"><text x="1796.52px" y="1260.52px" style="font-family:'Barlow-Medium', 'Barlow';font-weight:500;font-size:17px;">v</text></g><g transform="matrix(-0.643452,0.765487,-0.765487,-0.643452,3911.74,710.42)"><text x="1790.42px" y="1266.21px" style="font-family:'Barlow-Medium', 'Barlow';font-weight:500;font-size:17px;">r</text></g><g transform="matrix(-0.551518,0.834163,-0.834163,-0.551518,3831.67,481.713)"><text x="1786.34px" y="1270.89px" style="font-family:'Barlow-Medium', 'Barlow';font-weight:500;font-size:17px;">e</text></g><g transform="matrix(-0.375271,0.926915,-0.926915,-0.375271,3635.46,112.842)"><text x="1779.7px" y="1281.55px" style="font-family:'Barlow-Medium', 'Barlow';font-weight:500;font-size:17px;">d</text></g><g transform="matrix(-0.231613,0.972808,-0.972808,-0.231613,3442.74,-138.914)"><text x="1776.23px" y="1290.19px" style="font-family:'Barlow-Medium', 'Barlow';font-weight:500;font-size:17px;">u</text></g><g transform="matrix(-0.0328885,0.999459,-0.999459,-0.0328885,3133.8,-427.388)"><text x="1773.68px" y="1302.49px" style="font-family:'Barlow-Medium', 'Barlow';font-weight:500;font-size:17px;">q</text></g><g transform="matrix(0.116076,0.99324,-0.99324,0.116076,2870.54,-601.816)"><text x="1773.39px" y="1311.87px" style="font-family:'Barlow-Medium', 'Barlow';font-weight:500;font-size:17px;">u</text></g><g transform="matrix(0.26258,0.96491,-0.96491,0.26258,2583.15,-738.079)"><text x="1774.46px" y="1320.98px" style="font-family:'Barlow-Medium', 'Barlow';font-weight:500;font-size:17px;">é</text></g><g transform="matrix(0.404881,0.914369,-0.914369,0.404881,2273.39,-833.29)"><text x="1776.85px" y="1329.83px" style="font-family:'Barlow-Medium', 'Barlow';font-weight:500;font-size:17px;">b</text></g><g transform="matrix(0.533842,0.845585,-0.845585,0.533842,1961.74,-881.776)"><text x="1780.62px" y="1338.35px" style="font-family:'Barlow-Medium', 'Barlow';font-weight:500;font-size:17px;">e</text></g><g transform="matrix(0.65084,0.759215,-0.759215,0.65084,1645.4,-885.575)"><text x="1785.5px" y="1346.1px" style="font-family:'Barlow-Medium', 'Barlow';font-weight:500;font-size:17px;">c</text></g><g transform="matrix(0.774764,0.63225,-0.63225,0.774764,1260.87,-828.905)"><text x="1793.83px" y="1355.21px" style="font-family:'Barlow-Medium', 'Barlow';font-weight:500;font-size:17px;">-</text></g><g transform="matrix(0.856847,0.515571,-0.515571,0.856847,959.847,-734.133)"><text x="1801.92px" y="1361.39px" style="font-family:'Barlow-Medium', 'Barlow';font-weight:500;font-size:17px;">i</text></g><g transform="matrix(0.90792,0.419143,-0.419143,0.90792,737.85,-631.209)"><text x="1805.54px" y="1363.73px" style="font-family:'Barlow-Medium', 'Barlow';font-weight:500;font-size:17px;">n</text></g><g transform="matrix(0.952471,0.304628,-0.304628,0.952471,502.793,-487.58)"><text x="1813.93px" y="1367.5px" style="font-family:'Barlow-Medium', 'Barlow';font-weight:500;font-size:17px;">f</text></g><g transform="matrix(0.9815,0.191463,-0.191463,0.9815,295.83,-322.978)"><text x="1819.21px" y="1369.32px" style="font-family:'Barlow-Medium', 'Barlow';font-weight:500;font-size:17px;">o</text></g><g transform="matrix(0.998258,0.0589963,-0.0589963,0.998258,84.0718,-105.485)"><text x="1828.48px" y="1371.05px" style="font-family:'Barlow-Medium', 'Barlow';font-weight:500;font-size:17px;">r</text></g><g transform="matrix(0.995414,-0.0956618,0.0956618,0.995414,-122.811,181.811)"><text x="1834.8px" y="1371.77px" style="font-family:'Barlow-Medium', 'Barlow';font-weight:500;font-size:17px;">m</text></g><g transform="matrix(0.9621,-0.272695,0.272695,0.9621,-303.573,556.078)"><text x="1848.76px" y="1370.17px" style="font-family:'Barlow-Medium', 'Barlow';font-weight:500;font-size:17px;">a</text></g><g transform="matrix(0.92239,-0.386259,0.386259,0.92239,-384.169,823.464)"><text x="1857.08px" y="1367.73px" style="font-family:'Barlow-Medium', 'Barlow';font-weight:500;font-size:17px;">t</text></g><g transform="matrix(0.885393,-0.464844,0.464844,0.885393,-421.139,1022.4)"><text x="1862.84px" y="1365.26px" style="font-family:'Barlow-Medium', 'Barlow';font-weight:500;font-size:17px;">i</text></g><g transform="matrix(0.828951,-0.559321,0.559321,0.828951,-443.275,1277.29)"><text x="1866.71px" y="1363.39px" style="font-family:'Barlow-Medium', 'Barlow';font-weight:500;font-size:17px;">o</text></g><g transform="matrix(0.736468,-0.676472,0.676472,0.736468,-424.708,1625.98)"><text x="1874.55px" y="1358.09px" style="font-family:'Barlow-Medium', 'Barlow';font-weight:500;font-size:17px;">n</text></g><g transform="matrix(0.602588,-0.798052,0.798052,0.602588,-328.239,2039.38)"><text x="1883.54px" y="1349.26px" style="font-family:'Barlow-Medium', 'Barlow';font-weight:500;font-size:17px;">-</text></g><g transform="matrix(0.446937,-0.894565,0.894565,0.446937,-154.57,2431.97)"><text x="1889.54px" y="1340.99px" style="font-family:'Barlow-Medium', 'Barlow';font-weight:500;font-size:17px;">h</text></g><g transform="matrix(0.311255,-0.950327,0.950327,0.311255,37.7185,2717.51)"><text x="1893.66px" y="1332.73px" style="font-family:'Barlow-Medium', 'Barlow';font-weight:500;font-size:17px;">u</text></g><g transform="matrix(0.162872,-0.986647,0.986647,0.162872,281.298,2979.57)"><text x="1896.53px" y="1324.02px" style="font-family:'Barlow-Medium', 'Barlow';font-weight:500;font-size:17px;">b</text></g><g transform="matrix(-0.0158546,-0.999874,0.999874,-0.0158546,617.014,3230.18)"><text x="1898.19px" y="1311.44px" style="font-family:'Barlow-Medium', 'Barlow';font-weight:500;font-size:17px;">-</text></g><g transform="matrix(-0.181444,-0.983401,0.983401,-0.181444,962.454,3403.62)"><text x="1897.77px" y="1301.25px" style="font-family:'Barlow-Medium', 'Barlow';font-weight:500;font-size:17px;">r</text></g><g transform="matrix(-0.296132,-0.955147,0.955147,-0.296132,1221.49,3490.15)"><text x="1896.73px" y="1295px" style="font-family:'Barlow-Medium', 'Barlow';font-weight:500;font-size:17px;">é</text></g><g transform="matrix(-0.41081,-0.911721,0.911721,-0.41081,1499.24,3541.43)"><text x="1893.93px" y="1286.28px" style="font-family:'Barlow-Medium', 'Barlow';font-weight:500;font-size:17px;">f</text></g><g transform="matrix(-0.521371,-0.85333,0.85333,-0.521371,1784.85,3562.24)"><text x="1891.45px" y="1280.56px" style="font-family:'Barlow-Medium', 'Barlow';font-weight:500;font-size:17px;">é</text></g><g transform="matrix(-0.627904,-0.778291,0.778291,-0.627904,2080.65,3540.3)"><text x="1886.62px" y="1272.78px" style="font-family:'Barlow-Medium', 'Barlow';font-weight:500;font-size:17px;">r</text></g><g transform="matrix(-0.712351,-0.701823,0.701823,-0.712351,2334.24,3492.51)"><text x="1882.84px" y="1267.9px" style="font-family:'Barlow-Medium', 'Barlow';font-weight:500;font-size:17px;">e</text></g><g transform="matrix(-0.806977,-0.590583,0.590583,-0.806977,2645.45,3387.55)"><text x="1876.31px" y="1261.46px" style="font-family:'Barlow-Medium', 'Barlow';font-weight:500;font-size:17px;">n</text></g><g transform="matrix(-0.884863,-0.465851,0.465851,-0.884863,2937.42,3238)"><text x="1868.85px" y="1256px" style="font-family:'Barlow-Medium', 'Barlow';font-weight:500;font-size:17px;">c</text></g><g transform="matrix(-0.942344,-0.334646,0.334646,-0.942344,3195.79,3054.29)"><text x="1861.01px" y="1251.85px" style="font-family:'Barlow-Medium', 'Barlow';font-weight:500;font-size:17px;">e</text></g><g transform="matrix(-0.987529,-0.157438,0.157438,-0.987529,3478.53,2771.62)"><text x="1849.04px" y="1248.04px" style="font-family:'Barlow-Medium', 'Barlow';font-weight:500;font-size:17px;">-</text></g></g></g></svg>