<?xml version="1.0" standalone="no"?>
<!DOCTYPE svg PUBLIC "-//W3C//DTD SVG 20010904//EN"
 "http://www.w3.org/TR/2001/REC-SVG-20010904/DTD/svg10.dtd">
<svg version="1.0" xmlns="http://www.w3.org/2000/svg"
 width="816.000000pt" height="816.000000pt" viewBox="0 0 816.000000 816.000000"
 preserveAspectRatio="xMidYMid meet">
<metadata>
Created by potrace 1.11, written by Peter Selinger 2001-2013
</metadata>
<g transform="translate(0.000000,816.000000) scale(0.100000,-0.100000)"
fill="#000000" stroke="none">
<path d="M4374 8094 c-33 -40 -57 -70 -82 -99 -34 -40 -92 -125 -92 -135 0 -6
-4 -10 -8 -10 -4 0 -16 -15 -27 -32 -10 -18 -28 -49 -40 -68 -12 -19 -22 -37
-21 -40 0 -3 -9 -18 -20 -35 -64 -89 -214 -464 -239 -596 -2 -11 -7 -29 -10
-39 -14 -44 -52 -226 -61 -293 -4 -29 -8 -61 -10 -72 -1 -11 -3 -20 -4 -20 -1
0 -3 -20 -5 -45 -4 -47 -10 -99 -20 -185 -4 -27 -8 -75 -10 -105 -2 -30 -6
-91 -10 -135 -14 -178 -19 -579 -10 -745 10 -180 14 -230 20 -290 13 -135 25
-231 31 -248 2 -7 0 -11 -5 -7 -5 3 -12 20 -16 38 -3 17 -10 41 -15 52 -5 11
-18 49 -29 85 -11 36 -36 103 -56 150 -20 47 -41 99 -47 115 -6 17 -15 36 -21
43 -5 7 -24 41 -42 75 -63 122 -114 200 -199 305 -84 104 -140 159 -307 298
-80 67 -89 74 -193 151 -55 41 -109 81 -119 89 -9 8 -20 14 -23 14 -8 0 -69
44 -72 53 -2 4 -8 7 -14 7 -6 0 -25 10 -42 23 -50 38 -369 227 -382 227 -6 0
-97 61 -104 70 -3 4 -12 11 -21 16 -74 41 -290 259 -397 399 -26 33 -50 62
-54 63 -4 2 -8 8 -8 13 0 6 -18 37 -40 69 -22 32 -40 63 -40 68 0 6 -6 12 -14
15 -12 5 -13 1 -5 -21 5 -15 20 -85 34 -157 13 -71 27 -141 30 -155 8 -40 14
-73 19 -100 3 -14 10 -50 16 -80 6 -30 13 -66 16 -80 2 -14 6 -34 9 -46 3 -12
7 -39 10 -60 3 -21 8 -45 10 -52 3 -7 7 -34 11 -60 3 -26 8 -50 10 -53 2 -4 6
-24 10 -45 3 -22 7 -49 10 -61 2 -13 6 -35 9 -50 3 -16 10 -48 15 -73 5 -25
12 -58 14 -75 2 -16 5 -30 6 -30 1 0 3 -11 5 -25 5 -36 24 -139 40 -210 4 -14
8 -34 10 -46 3 -11 19 -68 35 -125 17 -57 32 -108 34 -114 2 -5 6 -17 9 -25 3
-8 19 -53 37 -100 68 -183 214 -479 301 -608 16 -24 29 -45 29 -47 0 -5 62
-98 70 -105 3 -3 18 -25 34 -49 16 -25 33 -50 38 -55 4 -6 41 -54 80 -106 61
-80 168 -209 278 -334 14 -15 82 -86 152 -157 119 -121 146 -155 88 -109 -14
11 -29 20 -34 20 -5 0 -17 7 -26 15 -10 9 -27 18 -40 20 -12 2 -28 9 -35 15
-24 20 -274 104 -345 115 -14 2 -36 7 -50 9 -70 15 -74 16 -215 33 -55 6 -156
7 -575 5 -85 0 -173 1 -195 3 -146 14 -282 31 -330 42 -11 3 -33 6 -50 9 -16
2 -50 8 -75 14 -25 5 -57 12 -73 14 -15 3 -35 7 -45 10 -19 6 -61 15 -107 23
-29 6 -29 5 15 -31 149 -121 355 -330 585 -592 74 -85 109 -126 165 -194 25
-30 47 -57 50 -60 3 -3 25 -30 50 -60 25 -30 47 -57 50 -60 3 -3 27 -32 54
-65 54 -66 214 -227 261 -262 17 -13 50 -39 75 -58 25 -19 50 -35 57 -35 6 0
13 -4 15 -9 10 -26 293 -154 391 -176 121 -27 174 -36 245 -40 35 -3 66 -6 70
-9 4 -2 7 -149 7 -326 0 -209 3 -324 10 -328 5 -3 278 -6 605 -7 l595 0 0 -25
c0 -57 -39 -222 -58 -247 -5 -7 -6 -13 -2 -13 4 0 -5 -20 -19 -45 -15 -25 -23
-45 -19 -45 4 0 3 -4 -2 -8 -6 -4 -23 -27 -39 -52 -28 -43 -133 -153 -186
-195 -33 -26 -188 -115 -200 -115 -6 0 -10 -2 -10 -5 0 -13 67 -141 78 -148 6
-4 12 -14 12 -21 0 -6 25 -40 56 -74 99 -108 214 -163 347 -166 20 0 38 -5 38
-11 1 -5 3 -19 4 -30 8 -73 68 -285 94 -331 5 -11 23 -46 39 -79 33 -66 96
-164 137 -210 15 -16 38 -43 51 -59 l24 -28 51 53 c52 55 159 208 159 228 0 6
5 11 12 11 6 0 9 3 5 6 -3 3 6 28 19 55 36 72 89 242 100 324 10 68 12 72 46
72 28 0 79 7 123 17 31 6 105 40 105 47 0 5 6 9 13 9 19 0 120 99 153 150 16
25 32 47 35 50 6 5 32 51 34 60 1 3 7 18 13 33 17 40 16 43 -19 57 -17 7 -36
18 -43 24 -7 6 -32 22 -56 35 -52 28 -128 89 -183 146 -39 41 -116 152 -117
170 -1 6 -7 17 -14 25 -29 33 -84 240 -82 305 l1 30 597 1 c329 0 600 3 603 6
4 3 7 151 8 327 l2 321 -245 0 c-135 -1 -266 -1 -292 -1 l-46 1 4 48 c9 108
13 141 29 212 47 220 160 407 302 497 16 10 30 20 33 23 5 5 49 26 62 29 4 1
25 8 45 15 52 17 187 20 248 5 104 -25 223 -101 270 -172 24 -37 74 -147 81
-180 19 -84 23 -171 11 -237 -13 -71 -16 -82 -28 -96 -6 -8 -9 -14 -5 -14 3 0
-5 -23 -20 -51 -14 -28 -23 -53 -20 -56 2 -3 20 0 38 5 18 6 47 13 63 16 35 5
161 42 190 54 11 5 40 18 65 29 25 11 48 20 51 19 4 0 15 6 25 15 11 9 29 20
42 23 12 4 22 12 22 17 0 5 7 9 15 9 8 0 15 5 15 10 0 6 4 10 10 10 33 0 202
177 270 282 110 170 165 366 164 588 0 68 -9 167 -19 210 -3 14 -8 36 -11 49
-3 13 -14 49 -25 80 -11 31 -21 60 -22 66 -5 25 -95 197 -130 249 -43 64 -195
221 -243 252 -16 10 -45 31 -64 46 -40 31 -200 112 -245 123 -16 5 -37 10 -45
12 -53 14 -98 18 -195 18 -126 0 -167 -6 -250 -35 -33 -12 -64 -23 -70 -24
-46 -10 -231 -113 -265 -148 -9 -8 -20 -17 -26 -19 -17 -6 -109 -86 -181 -157
-80 -79 -185 -216 -245 -319 -40 -71 -119 -237 -123 -258 0 -5 -6 -23 -13 -38
-7 -16 -12 -33 -12 -38 0 -5 -4 -17 -10 -27 -24 -43 -114 -379 -134 -502 -2
-14 -7 -41 -10 -60 -14 -80 -16 -97 -21 -145 -3 -27 -8 -63 -10 -80 -6 -35
-17 -214 -19 -295 l-1 -55 -110 -5 c-60 -3 -137 -3 -170 0 l-60 5 1 110 c1
111 11 335 18 390 2 17 7 59 11 95 7 70 10 93 20 155 3 22 10 67 16 100 5 33
11 71 14 85 3 14 10 48 16 75 6 28 12 55 13 60 1 6 6 26 10 45 20 89 207 681
236 745 5 11 12 31 15 45 4 14 17 52 30 85 13 33 39 105 59 160 20 55 41 108
46 117 6 10 10 23 10 29 0 6 6 25 14 42 15 35 40 99 42 107 0 3 5 16 11 30 10
24 82 234 87 255 2 6 6 17 9 25 10 23 66 247 71 283 3 18 8 43 11 57 10 39 12
401 4 472 -5 34 -11 88 -15 118 -5 45 -30 169 -48 240 -10 36 -58 187 -66 205
-5 11 -24 61 -44 110 -51 134 -179 410 -195 425 -3 3 -16 25 -29 50 -46 88
-135 234 -153 250 -3 3 -19 25 -36 50 -17 25 -54 74 -82 110 -28 36 -57 72
-64 81 -13 17 -69 86 -100 122 -10 12 -46 53 -80 91 -34 38 -66 75 -70 82 -12
21 -21 17 -53 -22z"/>
</g>
</svg>
